<svg width="1440" height="370" viewBox="0 0 1440 370" fill="none" xmlns="http://www.w3.org/2000/svg">
<path d="M29.7725 1C45.266 34.3205 124.9 124.885 269.231 101.83C444.809 73.7833 645.083 67.5648 673.807 107.68C702.531 147.795 769.951 196.646 1022.72 150.008C1275.49 103.37 1397.17 178.874 1440 215.564" stroke="#47494D"/>
<path d="M15.8789 63.0274C31.3725 96.348 111.006 186.912 255.337 163.857C430.915 135.811 631.19 129.592 659.914 169.707C688.638 209.822 756.057 258.673 1008.83 212.035C1261.6 165.397 1383.28 240.901 1426.11 277.592" stroke="#47494D"/>
<path d="M15.8789 107.966C31.3725 141.286 111.006 231.851 255.337 208.795C430.915 180.749 631.19 174.531 659.914 214.646C688.638 254.761 756.057 303.611 1008.83 256.973C1261.6 210.336 1383.28 285.839 1426.11 322.53" stroke="#47494D"/>
<path d="M0 155.436C15.4936 188.756 95.1274 279.321 239.458 256.265C415.036 228.219 615.311 222.001 644.035 262.116C672.759 302.231 740.178 351.081 992.95 304.443C1245.72 257.806 1367.4 333.309 1410.23 370" stroke="#47494D"/>
<path d="M31 74.6689C46.4936 107.989 126.127 198.554 270.458 175.499C446.036 147.452 646.311 141.234 675.035 181.349C703.759 221.464 771.178 270.315 1023.95 223.677C1276.72 177.039 1398.4 252.543 1441.23 289.233" stroke="#47494D"/>
</svg>
