<svg width="46" height="34" viewBox="0 0 46 34" fill="none" xmlns="http://www.w3.org/2000/svg">
<rect x="0.83865" y="0.303814" width="44.7118" height="33.3924" rx="3.11285" fill="#1F72CD" stroke="#DDDDDD" stroke-width="0.565972"/>
<path fill-rule="evenodd" clip-rule="evenodd" d="M9.07339 11.8355L4.95703 22.1512H9.88489L10.4958 20.5065H11.8922L12.5031 22.1512H17.9273V20.8959L18.4106 22.1512H21.2165L21.6998 20.8694V22.1512H32.9806L34.3523 20.5492L35.6367 22.1512L41.4308 22.1645L37.3014 17.0222L41.4308 11.8355H35.7266L34.3913 13.4079L33.1474 11.8355H20.8753L19.8215 14.4981L18.743 11.8355H13.8254V13.0481L13.2783 11.8355H9.07339ZM25.919 13.3004H32.397L34.3783 15.724L36.4235 13.3004H38.4048L35.3944 17.0207L38.4048 20.6982H36.3336L34.3523 18.2464L32.2967 20.6982H25.919V13.3004ZM27.5185 16.1842V14.8329V14.8317H31.5606L33.3243 16.9927L31.4825 19.1655H27.5185V17.6903H31.0526V16.1842H27.5185ZM10.0269 13.3004H12.429L15.1594 20.2955V13.3004H17.7907L19.8996 18.3158L21.8432 13.3004H24.4615V20.7026H22.8683L22.8553 14.9022L20.5327 20.7026H19.1076L16.7719 14.9022V20.7026H13.4945L12.8732 19.0431H9.51629L8.89624 20.7011H7.14022L10.0269 13.3004ZM10.0895 17.509L11.1954 14.5528L12.3001 17.509H10.0895Z" fill="white"/>
</svg>
