<svg width="40" height="40" viewBox="0 0 40 40" fill="none" xmlns="http://www.w3.org/2000/svg">
<rect x="0.5" y="0.5" width="39" height="39" rx="19.5" fill="#F7F7F7"/>
<rect x="0.5" y="0.5" width="39" height="39" rx="19.5" stroke="black"/>
<g clip-path="url(#clip0_40_2327)">
<path d="M20 12C17.829 12 17.556 12.01 16.703 12.048C15.85 12.088 15.269 12.222 14.76 12.42C14.2258 12.6203 13.7421 12.9354 13.343 13.343C12.9354 13.7421 12.6203 14.2258 12.42 14.76C12.222 15.268 12.087 15.85 12.048 16.7C12.01 17.555 12 17.827 12 20.001C12 22.173 12.01 22.445 12.048 23.298C12.088 24.15 12.222 24.731 12.42 25.24C12.625 25.766 12.898 26.212 13.343 26.657C13.787 27.102 14.233 27.376 14.759 27.58C15.269 27.778 15.849 27.913 16.701 27.952C17.555 27.99 17.827 28 20 28C22.173 28 22.444 27.99 23.298 27.952C24.149 27.912 24.732 27.778 25.241 27.58C25.7748 27.3795 26.2581 27.0645 26.657 26.657C27.102 26.212 27.375 25.766 27.58 25.24C27.777 24.731 27.912 24.15 27.952 23.298C27.99 22.445 28 22.173 28 20C28 17.827 27.99 17.555 27.952 16.701C27.912 15.85 27.777 15.268 27.58 14.76C27.3797 14.2258 27.0646 13.7421 26.657 13.343C26.2579 12.9354 25.7742 12.6203 25.24 12.42C24.73 12.222 24.148 12.087 23.297 12.048C22.443 12.01 22.172 12 19.998 12H20ZM19.283 13.442H20.001C22.137 13.442 22.39 13.449 23.233 13.488C24.013 13.523 24.437 13.654 24.719 13.763C25.092 13.908 25.359 14.082 25.639 14.362C25.919 14.642 26.092 14.908 26.237 15.282C26.347 15.563 26.477 15.987 26.512 16.767C26.551 17.61 26.559 17.863 26.559 19.998C26.559 22.133 26.551 22.387 26.512 23.23C26.477 24.01 26.346 24.433 26.237 24.715C26.1078 25.0619 25.9032 25.3758 25.638 25.634C25.358 25.914 25.092 26.087 24.718 26.232C24.438 26.342 24.014 26.472 23.233 26.508C22.39 26.546 22.137 26.555 20.001 26.555C17.865 26.555 17.611 26.546 16.768 26.508C15.988 26.472 15.565 26.342 15.283 26.232C14.9358 26.1033 14.6216 25.899 14.363 25.634C14.0973 25.3756 13.8923 25.0614 13.763 24.714C13.654 24.433 13.523 24.009 13.488 23.229C13.45 22.386 13.442 22.133 13.442 19.996C13.442 17.859 13.45 17.608 13.488 16.765C13.524 15.985 13.654 15.561 13.764 15.279C13.909 14.906 14.083 14.639 14.363 14.359C14.643 14.079 14.909 13.906 15.283 13.761C15.565 13.651 15.988 13.521 16.768 13.485C17.506 13.451 17.792 13.441 19.283 13.44V13.442ZM24.271 14.77C24.1449 14.77 24.0201 14.7948 23.9036 14.8431C23.7872 14.8913 23.6813 14.962 23.5922 15.0512C23.503 15.1403 23.4323 15.2462 23.3841 15.3626C23.3358 15.4791 23.311 15.6039 23.311 15.73C23.311 15.8561 23.3358 15.9809 23.3841 16.0974C23.4323 16.2138 23.503 16.3197 23.5922 16.4088C23.6813 16.498 23.7872 16.5687 23.9036 16.6169C24.0201 16.6652 24.1449 16.69 24.271 16.69C24.5256 16.69 24.7698 16.5889 24.9498 16.4088C25.1299 16.2288 25.231 15.9846 25.231 15.73C25.231 15.4754 25.1299 15.2312 24.9498 15.0512C24.7698 14.8711 24.5256 14.77 24.271 14.77ZM20.001 15.892C19.4561 15.8835 18.9149 15.9835 18.409 16.1861C17.9031 16.3888 17.4425 16.6901 17.0542 17.0724C16.6658 17.4548 16.3574 17.9106 16.1468 18.4133C15.9363 18.916 15.8279 19.4555 15.8279 20.0005C15.8279 20.5455 15.9363 21.085 16.1468 21.5877C16.3574 22.0904 16.6658 22.5462 17.0542 22.9286C17.4425 23.3109 17.9031 23.6122 18.409 23.8149C18.9149 24.0175 19.4561 24.1175 20.001 24.109C21.0795 24.0922 22.1082 23.6519 22.865 22.8833C23.6217 22.1146 24.0459 21.0792 24.0459 20.0005C24.0459 18.9218 23.6217 17.8864 22.865 17.1177C22.1082 16.3491 21.0795 15.9088 20.001 15.892ZM20.001 17.333C20.3512 17.333 20.698 17.402 21.0216 17.536C21.3452 17.67 21.6392 17.8665 21.8869 18.1141C22.1345 18.3618 22.331 18.6558 22.465 18.9794C22.599 19.303 22.668 19.6498 22.668 20C22.668 20.3502 22.599 20.697 22.465 21.0206C22.331 21.3442 22.1345 21.6382 21.8869 21.8859C21.6392 22.1335 21.3452 22.33 21.0216 22.464C20.698 22.598 20.3512 22.667 20.001 22.667C19.2937 22.667 18.6153 22.386 18.1151 21.8859C17.615 21.3857 17.334 20.7073 17.334 20C17.334 19.2927 17.615 18.6143 18.1151 18.1141C18.6153 17.614 19.2937 17.333 20.001 17.333Z" fill="black"/>
</g>
<defs>
<clipPath id="clip0_40_2327">
<rect width="16" height="16" fill="white" transform="translate(12 12)"/>
</clipPath>
</defs>
</svg>
