<svg width="46" height="34" viewBox="0 0 46 34" fill="none" xmlns="http://www.w3.org/2000/svg">
<g clip-path="url(#clip0_239_3443)">
<path d="M17.4682 0.455733L11.5402 24.2736H7.67283L4.7556 5.26471C4.57873 4.09672 4.42504 3.66688 3.88683 3.173C3.0071 2.36812 1.55432 1.61538 0.277344 1.14711L0.363478 0.455733H6.58988C7.38224 0.455733 8.09572 1.34431 8.27718 2.88286L9.81857 16.6667L13.624 0.455733H17.4682ZM22.6964 0.455733L19.6714 24.2736H16.0124L19.0377 0.455733H22.6964ZM32.6214 16.4972C32.6366 10.2122 27.4615 9.86338 27.4953 7.05527C27.5077 6.20154 27.9905 5.29271 29.0475 5.06036C29.571 4.94628 31.0174 4.85542 32.6557 6.12677L33.2967 1.07294C32.4164 0.536757 31.2836 0.0208282 29.8745 0.0208282C26.2576 0.0208282 23.7134 3.2564 23.693 7.8932C23.6693 11.323 25.5103 13.2345 26.8948 14.3769C28.3209 15.5434 28.7992 16.2931 28.7926 17.3357C28.7824 18.9338 27.6536 19.6413 26.6042 19.6675C24.7641 19.7167 23.6975 18.8299 22.8465 18.1623L22.1824 23.3836C23.0384 24.0443 24.6161 24.6183 26.2502 24.6475C30.0952 24.6475 32.6101 21.4488 32.6214 16.4972ZM42.1722 24.2739H45.5551L42.5997 0.455733H39.4785C38.7746 0.455733 38.183 1.14384 37.9205 2.20161L32.4306 24.2736H36.2726L37.0348 20.7158H41.7288L42.1722 24.2739ZM38.0884 15.8353L40.0148 6.89084L41.1214 15.8353H38.0884ZM27.3791 30.83H25.8924V33.1603H27.5553V33.8609H25.3915V27.396H27.47V28.0966H25.8924V30.1392H27.3789L27.3791 30.83ZM28.3234 27.0511H28.8243V33.8606H28.3234V27.0511ZM30.0882 31.6929C30.0995 32.8347 30.5268 33.3045 31.0333 33.3045C31.3924 33.3045 31.6143 33.199 31.7969 33.065L31.8878 33.6694C31.7113 33.8034 31.4039 33.9664 30.9651 33.9664C30.1168 33.9664 29.6101 33.017 29.6101 31.6164C29.6101 30.2163 30.0995 29.1225 30.9026 29.1225C31.8082 29.1225 32.0417 30.4466 32.0417 31.3C32.0417 31.4725 32.0358 31.597 32.0243 31.6932L30.0882 31.6929ZM31.5574 31.0888C31.5632 30.5616 31.4265 29.7269 30.8627 29.7269C30.3501 29.7269 30.1336 30.5038 30.0936 31.0888H31.5574ZM34.7682 33.6977C34.6373 33.8034 34.3467 33.9667 33.9767 33.9667C33.1453 33.9667 32.6043 33.017 32.6043 31.5973C32.6043 30.1681 33.1849 29.1228 34.0848 29.1228C34.3809 29.1228 34.6428 29.247 34.7795 29.3721L34.666 30.0147C34.5459 29.9092 34.3581 29.7936 34.0848 29.7936C33.4525 29.7936 33.1112 30.5899 33.1112 31.5497C33.1112 32.6235 33.5211 33.2854 34.0678 33.2854C34.3526 33.2854 34.5404 33.1704 34.6828 33.065L34.7682 33.6977ZM36.174 28.1059V29.2184H36.8913V29.8607H36.174V32.3644C36.174 32.9405 36.2709 33.266 36.5498 33.266C36.6863 33.266 36.7663 33.2473 36.8404 33.2082L36.8632 33.8517C36.7663 33.9089 36.6126 33.9664 36.4189 33.9664C36.1853 33.9664 35.9973 33.832 35.8779 33.6119C35.7412 33.3524 35.6842 32.9405 35.6842 32.3935V29.8607H35.2569V29.2184H35.6842V28.3552L36.174 28.1059ZM37.5912 30.667C37.5912 30.1201 37.5852 29.6504 37.5684 29.2184H38.007L38.03 30.1389H38.0466C38.1722 29.516 38.4794 29.1225 38.8153 29.1225C38.8667 29.1225 38.9067 29.1324 38.9523 29.1416V29.9381C38.9011 29.9185 38.8499 29.9185 38.7811 29.9185C38.4285 29.9185 38.1775 30.3596 38.1094 30.9932C38.0976 31.1233 38.0919 31.2548 38.0922 31.3864V33.8612H37.5912V30.667ZM42.0325 31.5011C42.0325 33.2181 41.3204 33.9664 40.66 33.9664C39.9195 33.9664 39.3388 33.0453 39.3388 31.5782C39.3388 30.0337 39.9481 29.1228 40.7056 29.1228C41.4971 29.1228 42.0325 30.0906 42.0325 31.5011ZM39.8512 31.5497C39.8512 32.5663 40.1929 33.334 40.6826 33.334C41.1612 33.334 41.5197 32.5756 41.5197 31.5303C41.5197 30.7439 41.2863 29.7555 40.694 29.7555C40.1076 29.7555 39.8512 30.6769 39.8512 31.5497ZM42.8004 30.4752C42.8004 29.9864 42.7944 29.6024 42.7774 29.219H43.2217L43.2502 29.9864H43.2615C43.3982 29.5545 43.7171 29.1231 44.1727 29.1231C44.5541 29.1231 45.1466 29.5068 45.1466 31.0984V33.8612H44.6455V31.185C44.6455 30.4374 44.4803 29.8133 44.0077 29.8133C43.683 29.8133 43.4265 30.2068 43.3358 30.6766C43.3128 30.7823 43.3015 30.9259 43.3015 31.0701V33.8612H42.8004V30.4752Z" fill="#1A1F71"/>
</g>
<defs>
<clipPath id="clip0_239_3443">
<rect width="45.2778" height="33.9583" fill="white" transform="translate(0.277344 0.0208282)"/>
</clipPath>
</defs>
</svg>
