<svg width="185" height="50" viewBox="0 0 185 50" fill="none" xmlns="http://www.w3.org/2000/svg">
<path d="M3.07788 32.7922L14.5065 9.67529L25.4155 40.5844L39.4415 14.3506L3.07788 32.7922Z" stroke="#F17020" stroke-width="2"/>
<circle cx="21" cy="25" r="18.5" stroke="#F17020" stroke-width="3"/>
<path d="M45.288 13.984H63.304V19.104H45.288V13.984ZM51.08 20.384H57.48V36H51.08V20.384ZM72.6818 20.608C73.1298 20.1813 73.6524 19.8827 74.2498 19.712C74.8684 19.52 75.6258 19.424 76.5218 19.424V24.768C75.5618 24.768 74.7724 24.832 74.1538 24.96C73.5564 25.088 73.0658 25.312 72.6818 25.632V20.608ZM65.4178 19.68H71.3378V36H65.4178V19.68ZM83.5875 36.224C81.6675 36.224 80.3768 35.6373 79.7155 34.464C79.4168 33.952 79.2142 33.3333 79.1075 32.608C79.0008 31.8613 78.9475 30.9547 78.9475 29.888V19.68H84.8675V27.392C84.8675 28.5227 84.8782 29.2693 84.8995 29.632C84.9422 30.1653 85.0062 30.5493 85.0915 30.784C85.1768 31.0187 85.3155 31.168 85.5075 31.232C85.6995 31.2747 86.0408 31.296 86.5315 31.296H86.8515V35.296C86.0195 35.9147 84.9315 36.224 83.5875 36.224ZM88.1955 19.68H94.1155V36H88.1955V19.68ZM109.858 24.128C109.452 24.1067 108.898 24.0533 108.194 23.968C106.871 23.84 105.804 23.776 104.994 23.776H103.938V19.424C105.452 19.424 106.892 19.5307 108.258 19.744L109.858 20.032V24.128ZM105.218 31.04C105.218 30.72 105.164 30.5173 105.058 30.432C104.951 30.3467 104.727 30.2827 104.385 30.24L100.93 29.76C100.076 29.632 99.3828 29.4293 98.8495 29.152C98.3375 28.8747 97.9535 28.5013 97.6975 28.032C97.4415 27.6267 97.2708 27.136 97.1855 26.56C97.1002 25.984 97.0575 25.2693 97.0575 24.416C97.0575 22.6667 97.5802 21.3867 98.6255 20.576C99.5002 19.936 100.823 19.5627 102.594 19.456V24.48C102.594 24.8 102.636 25.0133 102.722 25.12C102.807 25.2053 103.074 25.28 103.522 25.344L107.362 25.856C107.916 25.92 108.396 26.0373 108.802 26.208C109.207 26.3573 109.548 26.592 109.826 26.912C110.444 27.5947 110.754 28.9067 110.754 30.848C110.754 32.896 110.231 34.3253 109.186 35.136C108.268 35.8187 106.946 36.1813 105.218 36.224V31.04ZM103.874 36.256C102.167 36.2347 100.674 36.128 99.3935 35.936L97.5695 35.648V31.552C98.4228 31.6373 99.5748 31.7227 101.026 31.808C101.836 31.8507 102.412 31.872 102.754 31.872H103.874V36.256ZM112.295 19.68H115.303V14.944H121.223V19.68H124.807V24.192H112.295V19.68ZM115.303 25.472H121.223V36H115.303V25.472ZM127.455 13.984H133.855V36H127.455V13.984ZM135.199 31.104H136.511C137.108 31.104 137.556 31.0933 137.855 31.072C138.175 31.0293 138.41 30.944 138.559 30.816C138.708 30.688 138.804 30.5067 138.847 30.272C138.911 30.0373 138.943 29.696 138.943 29.248C138.943 28.7787 138.911 28.4267 138.847 28.192C138.804 27.9573 138.708 27.776 138.559 27.648C138.303 27.4347 137.62 27.328 136.511 27.328H135.199V22.432H136.319C136.916 22.432 137.364 22.4213 137.663 22.4C137.983 22.3573 138.218 22.272 138.367 22.144C138.516 22.016 138.612 21.8453 138.655 21.632C138.719 21.3973 138.751 21.0773 138.751 20.672C138.751 20.2453 138.719 19.9253 138.655 19.712C138.612 19.4773 138.516 19.296 138.367 19.168C138.218 19.04 137.983 18.9653 137.663 18.944C137.364 18.9013 136.916 18.88 136.319 18.88H135.199V13.984H138.847C143.135 13.984 145.279 15.8293 145.279 19.52C145.279 21.0773 144.97 22.2507 144.351 23.04C143.754 23.8293 142.794 24.384 141.471 24.704V24.832C142.858 25.152 143.85 25.6533 144.447 26.336C145.13 27.1467 145.471 28.4053 145.471 30.112C145.471 32.0747 144.948 33.5467 143.903 34.528C142.858 35.5093 141.183 36 138.879 36H135.199V31.104ZM153.213 36.224C151.293 36.224 150.002 35.6373 149.341 34.464C149.042 33.952 148.839 33.3333 148.733 32.608C148.626 31.8613 148.573 30.9547 148.573 29.888V19.68H154.493V27.392C154.493 28.5227 154.503 29.2693 154.525 29.632C154.567 30.1653 154.631 30.5493 154.717 30.784C154.802 31.0187 154.941 31.168 155.133 31.232C155.325 31.2747 155.666 31.296 156.157 31.296H156.477V35.296C155.645 35.9147 154.557 36.224 153.213 36.224ZM157.821 19.68H163.741V36H157.821V19.68ZM172.027 35.904C170.107 35.904 168.816 35.3173 168.155 34.144C167.856 33.632 167.653 33.0133 167.547 32.288C167.44 31.5413 167.387 30.6347 167.387 29.568V19.68H173.307V27.072C173.307 28.2027 173.317 28.9493 173.339 29.312C173.381 29.8667 173.445 30.2507 173.531 30.464C173.616 30.6987 173.755 30.848 173.947 30.912C174.139 30.9547 174.48 30.976 174.97 30.976H175.291V34.944C174.437 35.584 173.349 35.904 172.027 35.904ZM174.235 42.592C173.125 42.592 171.824 42.528 170.331 42.4L168.475 42.208V38.08H172.763C173.531 38.08 174.277 38.0587 175.003 38.016C175.515 37.9733 175.888 37.8667 176.123 37.696C176.379 37.5467 176.528 37.28 176.571 36.896C176.613 36.384 176.635 35.84 176.635 35.264V19.68H182.555V34.208C182.555 35.9147 182.48 37.2373 182.331 38.176C182.203 39.1147 181.893 39.8933 181.403 40.512C180.848 41.216 180.005 41.7387 178.875 42.08C177.744 42.4213 176.197 42.592 174.235 42.592Z" fill="#111313"/>
</svg>
