<svg width="46" height="34" viewBox="0 0 46 34" fill="none" xmlns="http://www.w3.org/2000/svg">
<g clip-path="url(#clip0_239_3438)">
<path d="M8.2316 33.8104V31.5628C8.2316 30.7011 7.68791 30.1393 6.75601 30.1393C6.29014 30.1393 5.78536 30.2891 5.43588 30.7761C5.16421 30.364 4.77599 30.1393 4.19357 30.1393C3.80517 30.1393 3.41712 30.2516 3.10637 30.6637V30.2142H2.29102V33.8104H3.10637V31.8249C3.10637 31.1883 3.45586 30.8884 3.99954 30.8884C4.54288 30.8884 4.8149 31.2256 4.8149 31.8249V33.8104H5.63025V31.8249C5.63025 31.1883 6.0183 30.8884 6.52307 30.8884C7.06676 30.8884 7.33843 31.2256 7.33843 31.8249V33.8104H8.2316ZM20.3064 30.2142H18.9865V29.1279H18.1711V30.2142H17.4334V30.9258H18.171V32.5742C18.171 33.3984 18.5204 33.8853 19.4524 33.8853C19.8018 33.8853 20.1899 33.773 20.4619 33.6232L20.2288 32.9488C19.9959 33.0986 19.7242 33.1362 19.53 33.1362C19.1418 33.1362 18.9865 32.9114 18.9865 32.5367V30.9258H20.3064V30.2142ZM27.2177 30.1391C26.7518 30.1391 26.4412 30.364 26.247 30.6637V30.2142H25.4317V33.8104H26.247V31.7876C26.247 31.1883 26.5187 30.8511 27.0235 30.8511C27.1788 30.8511 27.373 30.8886 27.5282 30.926L27.7612 30.1768C27.6059 30.1393 27.373 30.1393 27.2177 30.1393M16.7734 30.514C16.385 30.2518 15.8415 30.1395 15.259 30.1395C14.3273 30.1395 13.7061 30.5889 13.7061 31.3007C13.7061 31.9002 14.172 32.2372 14.9874 32.3497L15.3756 32.3872C15.8027 32.4619 16.0357 32.5744 16.0357 32.7618C16.0357 33.0239 15.7251 33.2112 15.1814 33.2112C14.6377 33.2112 14.2107 33.0239 13.9389 32.8367L13.5507 33.436C13.9778 33.7356 14.5602 33.8855 15.1425 33.8855C16.2297 33.8855 16.851 33.3986 16.851 32.7242C16.851 32.0874 16.3462 31.7502 15.5696 31.6379L15.1814 31.6004C14.8319 31.5628 14.5602 31.4881 14.5602 31.2633C14.5602 31.0011 14.8319 30.8512 15.259 30.8512C15.7251 30.8512 16.1909 31.0384 16.4239 31.1509L16.7734 30.514ZM38.4386 30.1395C37.9726 30.1395 37.662 30.3642 37.4678 30.6639V30.2144H36.6524V33.8106H37.4678V31.7877C37.4678 31.1884 37.7396 30.8512 38.2442 30.8512C38.3997 30.8512 38.5939 30.8888 38.7492 30.9261L38.9821 30.177C38.8268 30.1395 38.5939 30.1395 38.4386 30.1395ZM28.033 32.0125C28.033 33.0988 28.8095 33.8855 30.0132 33.8855C30.5567 33.8855 30.945 33.7732 31.3332 33.4735L30.945 32.8367C30.6344 33.0614 30.3238 33.1737 29.9743 33.1737C29.3142 33.1737 28.8484 32.7242 28.8484 32.0125C28.8484 31.3383 29.3142 30.8886 29.9743 30.8512C30.3238 30.8512 30.6344 30.9635 30.945 31.1884L31.3332 30.5516C30.945 30.2518 30.5567 30.1395 30.0132 30.1395C28.8095 30.1395 28.033 30.9261 28.033 32.0125ZM35.5654 32.0125V30.2144H34.7501V30.6639C34.4782 30.3268 34.09 30.1395 33.5852 30.1395C32.5369 30.1395 31.7216 30.9261 31.7216 32.0125C31.7216 33.0988 32.5369 33.8855 33.5852 33.8855C34.1287 33.8855 34.5171 33.6983 34.7501 33.3611V33.8106H35.5654V32.0125ZM32.5757 32.0125C32.5757 31.3756 33.0028 30.8512 33.7016 30.8512C34.3617 30.8512 34.8277 31.3383 34.8277 32.0125C34.8277 32.6493 34.3617 33.1737 33.7016 33.1737C33.0028 33.1362 32.5757 32.6493 32.5757 32.0125ZM22.8303 30.1395C21.7431 30.1395 20.9665 30.8886 20.9665 32.0125C20.9665 33.1363 21.743 33.8855 22.8691 33.8855C23.4126 33.8855 23.9563 33.7356 24.3834 33.3986L23.995 32.8367C23.6844 33.0614 23.2962 33.2112 22.908 33.2112C22.4032 33.2112 21.8984 32.9865 21.7819 32.3495H24.5387V32.05C24.5776 30.8886 23.8788 30.1395 22.8303 30.1395ZM22.8301 30.8137C23.3347 30.8137 23.6844 31.1135 23.7619 31.6754H21.8206C21.8982 31.1884 22.2477 30.8137 22.8301 30.8137ZM43.0587 32.0125V28.7909H42.2433V30.6639C41.9715 30.3268 41.5833 30.1395 41.0785 30.1395C40.0302 30.1395 39.2149 30.9261 39.2149 32.0125C39.2149 33.0988 40.0302 33.8855 41.0785 33.8855C41.6222 33.8855 42.0104 33.6983 42.2433 33.3611V33.8106H43.0587V32.0125ZM40.0691 32.0125C40.0691 31.3756 40.4961 30.8512 41.1951 30.8512C41.8551 30.8512 42.321 31.3383 42.321 32.0125C42.321 32.6493 41.8551 33.1737 41.1951 33.1737C40.4961 33.1362 40.0691 32.6493 40.0691 32.0125ZM12.8128 32.0125V30.2144H11.9974V30.6639C11.7256 30.3268 11.3374 30.1395 10.8326 30.1395C9.78431 30.1395 8.96896 30.9261 8.96896 32.0125C8.96896 33.0988 9.78431 33.8855 10.8326 33.8855C11.3763 33.8855 11.7645 33.6983 11.9974 33.3611V33.8106H12.8128V32.0125ZM9.78431 32.0125C9.78431 31.3756 10.2114 30.8512 10.9102 30.8512C11.5703 30.8512 12.0363 31.3383 12.0363 32.0125C12.0363 32.6493 11.5703 33.1737 10.9102 33.1737C10.2114 33.1362 9.78431 32.6493 9.78431 32.0125Z" fill="black"/>
<path d="M16.501 2.90523H28.7313V24.108H16.501V2.90523Z" fill="#FF5F00"/>
<path d="M17.2779 13.5067C17.2779 9.19879 19.3745 5.37771 22.597 2.90524C20.2287 1.10715 17.2392 0.0208282 13.9777 0.0208282C6.25099 0.0208282 0 6.05193 0 13.5067C0 20.9615 6.25099 26.9926 13.9776 26.9926C17.239 26.9926 20.2286 25.9063 22.597 24.108C19.3745 21.6731 17.2779 17.8147 17.2779 13.5067Z" fill="#EB001B"/>
<path d="M45.2327 13.5067C45.2327 20.9613 38.9817 26.9926 31.2551 26.9926C27.9937 26.9926 25.0042 25.9063 22.6357 24.108C25.8972 21.6357 27.955 17.8147 27.955 13.5067C27.955 9.19879 25.8582 5.37771 22.6357 2.90524C25.004 1.10715 27.9937 0.0208282 31.2551 0.0208282C38.9817 0.0208282 45.2327 6.08947 45.2327 13.5067Z" fill="#F79E1B"/>
</g>
<defs>
<clipPath id="clip0_239_3438">
<rect width="45.2778" height="33.9583" fill="white" transform="translate(0 0.0208282)"/>
</clipPath>
</defs>
</svg>
