<svg width="506" height="397" viewBox="0 0 506 397" fill="none" xmlns="http://www.w3.org/2000/svg">
<path d="M336.999 312.6C356.085 328.229 377.897 346.165 394.938 360.194C403.459 367.208 410.786 373.245 415.984 377.529C418.583 379.671 420.649 381.375 422.065 382.543L423.688 383.881L424.038 384.169C424.092 384.152 424.155 384.132 424.225 384.109C424.518 384.012 424.951 383.867 425.511 383.672C426.632 383.283 428.258 382.696 430.277 381.906C434.316 380.326 439.926 377.935 446.207 374.693C458.778 368.205 473.999 358.328 484.707 344.752C495.422 331.167 500.62 317.03 503.14 306.287C504.399 300.916 504.989 296.396 505.263 293.222C505.4 291.635 505.459 290.384 505.483 289.533C505.495 289.107 505.498 288.781 505.499 288.562C505.499 288.545 505.499 288.53 505.499 288.514L505.409 288.462L504.422 287.891C503.557 287.389 502.284 286.653 500.656 285.711C497.399 283.827 492.719 281.122 487.027 277.838C475.643 271.27 460.209 262.385 444.013 253.12C411.611 234.585 376.18 214.539 363.984 208.452L336.999 312.6ZM336.999 312.6C328.071 305.283 319.733 298.465 312.766 292.799C312.371 289.753 310.604 281.5 308.078 270.14C306.98 265.193 305.737 259.649 304.398 253.677C299.987 234.008 294.533 209.689 289.804 186.726C291.044 184.732 292.345 182.747 293.649 180.756C296.468 176.453 299.306 172.121 301.595 167.601C302.222 166.367 302.805 165.109 303.344 163.839L303.344 163.839C303.454 163.578 303.562 163.317 303.667 163.055C306.097 165.189 308.649 167.412 311.284 169.672C321.894 178.78 333.88 188.586 344.882 196.461C351.826 201.443 358.395 205.667 363.983 208.452L336.999 312.6Z" fill="#DA4139" stroke="#F17020"/>
<path d="M154.983 203.134C154.974 203.128 154.963 203.122 154.952 203.116C154.941 203.11 154.929 203.104 154.919 203.097L154.983 203.134ZM154.983 203.134C164.462 208.547 174.223 216.321 173.794 226.193L154.983 203.134ZM107.649 189.155L107.649 189.155C110.877 187.967 114.748 187.864 118.941 188.5C123.129 189.135 127.601 190.503 132.008 192.222C140.817 195.656 149.305 200.464 154.658 203.523C154.669 203.53 154.678 203.536 154.686 203.54C154.699 203.548 154.711 203.554 154.717 203.557L154.718 203.558L154.72 203.56L154.735 203.568C159.456 206.264 164.216 209.531 167.737 213.331C171.258 217.131 173.501 221.418 173.295 226.171L173.294 226.172C173.162 229.374 171.743 232.611 168.94 234.618L168.94 234.619C168.588 234.872 168.229 235.092 167.854 235.304C165.056 236.838 161.673 237.106 158.159 236.633C154.646 236.16 151.048 234.952 147.864 233.589C143.141 231.566 126.309 222.752 114.078 213.205C111.023 210.82 108.264 208.397 106.057 206.03C103.845 203.657 102.209 201.366 101.369 199.246C100.533 197.137 100.5 195.242 101.415 193.589C102.34 191.916 104.291 190.389 107.649 189.155Z" fill="#DA4139" stroke="#F17020"/>
<path d="M169.719 201.352L169.719 201.352C166.599 202.715 162.76 203.04 158.544 202.649C154.332 202.259 149.782 201.157 145.268 199.703C136.247 196.796 127.432 192.501 121.839 189.745C121.771 189.707 121.707 189.675 121.649 189.648C116.736 187.223 111.742 184.234 107.943 180.642C104.143 177.05 101.583 172.899 101.433 168.143L101.433 168.142C101.324 164.941 102.498 161.632 105.141 159.473L105.141 159.473C106.6 158.279 108.322 157.534 110.205 157.138L110.206 157.138C115.159 156.089 121.165 157.471 126.247 159.302L126.247 159.302C131.111 161.049 148.568 168.884 161.489 177.716C164.717 179.922 167.652 182.183 170.033 184.421C172.418 186.663 174.223 188.858 175.221 190.927C176.215 192.987 176.389 194.877 175.601 196.577C174.805 198.295 172.976 199.929 169.719 201.352Z" fill="#DA4139" stroke="#F17020"/>
<path d="M121.172 158.684L121.172 158.685C126.36 161.917 134.63 167.037 143.295 170.795C147.626 172.674 152.041 174.206 156.207 174.994C160.375 175.783 164.259 175.82 167.549 174.747L121.172 158.684ZM121.172 158.684C119.742 157.794 118.308 156.847 116.922 155.847L116.92 155.846M121.172 158.684L116.92 155.846M116.92 155.846C113.131 153.132 109.629 150.035 107.169 146.606C104.713 143.181 103.314 139.45 103.673 135.443C103.962 132.254 105.532 129.067 108.428 127.158L108.429 127.158M116.92 155.846L108.429 127.158M108.429 127.158C109.789 126.26 111.299 125.707 112.896 125.427L112.897 125.427M108.429 127.158L112.897 125.427M112.897 125.427C118.141 124.495 124.321 126.508 129.442 128.93M112.897 125.427L129.442 128.93M129.442 128.93C134.06 131.115 150.466 140.513 162.243 150.484M129.442 128.93L162.243 150.484M162.243 150.484C165.185 152.974 167.828 155.493 169.924 157.936M162.243 150.484L169.924 157.936M169.924 157.936C172.024 160.384 173.551 162.731 174.292 164.878M169.924 157.936L174.292 164.878M174.292 164.878C175.029 167.013 174.977 168.909 173.985 170.532M174.292 164.878L173.985 170.532M173.985 170.532C172.982 172.174 170.96 173.632 167.549 174.747L173.985 170.532Z" fill="#DA4139" stroke="#F17020"/>
<path d="M112.597 120.984L112.598 120.985C113.986 121.984 115.419 122.931 116.85 123.823C122.037 127.055 130.308 132.175 138.973 135.933C143.304 137.812 147.719 139.344 151.884 140.132C156.053 140.921 159.936 140.958 163.226 139.885L112.597 120.984ZM112.597 120.984C108.807 118.27 105.306 115.173 102.846 111.744C100.39 108.319 98.9911 104.588 99.3496 100.581C99.639 97.3922 101.208 94.2047 104.105 92.2965L104.105 92.2961M112.597 120.984L104.105 92.2961M104.105 92.2961C105.465 91.3979 106.975 90.8452 108.573 90.5654L108.574 90.5652M104.105 92.2961L108.574 90.5652M108.574 90.5652C113.817 89.6331 119.997 91.6457 125.117 94.0669M108.574 90.5652L125.117 94.0669M125.117 94.0669C129.737 96.252 146.144 105.651 157.921 115.622M125.117 94.0669L157.921 115.622M157.921 115.622C160.862 118.112 163.506 120.63 165.602 123.074M157.921 115.622L165.602 123.074M165.602 123.074C167.701 125.522 169.229 127.869 169.97 130.015M165.602 123.074L169.97 130.015M169.97 130.015C170.707 132.151 170.654 134.047 169.663 135.67M169.97 130.015L169.663 135.67M169.663 135.67C168.659 137.312 166.638 138.77 163.226 139.885L169.663 135.67Z" fill="#DA4139" stroke="#F17020"/>
<path d="M129.044 30.7756L129.044 30.7754L128.982 23.9167C128.901 14.2824 137.814 6.29658 149.046 6.2259L149.046 6.2259L295.48 5.2499L295.477 4.74991L295.48 5.2499C304.963 5.18631 312.595 11.8251 312.668 19.9423L312.761 30.6043L315.007 290.036L315.262 319.744C315.336 327.861 307.826 334.595 298.333 334.661L148.744 335.661C139.26 335.719 131.629 329.08 131.555 320.968L131.289 290.201L129.044 30.7756Z" fill="#232259" stroke="#F17020"/>
<path d="M293.881 38.1899L304.677 38.1804L308.216 290.036L140.114 290.197L138.765 194.056L136.573 38.3404L293.881 38.1899Z" fill="#97B8FE" stroke="#F17020"/>
<path d="M226.792 21.6589C226.452 18.1799 222.94 15.5999 218.949 15.8959C214.957 16.1919 211.997 19.2529 212.337 22.7319C212.677 26.2109 216.188 28.7909 220.18 28.4939C224.171 28.1979 227.131 25.1379 226.792 21.6589Z" stroke="#F17020" stroke-width="2.8947" stroke-miterlimit="10" stroke-linecap="round" stroke-linejoin="round"/>
<path d="M294.133 38.1897L304.677 38.1804L308.216 290.036L140.113 290.196L138.769 194.417C142.699 193.045 146.509 191.425 150.212 189.64C161.412 184.245 171.529 177.285 181.261 170.138L180.965 169.735L181.261 170.138C199.96 156.403 218.061 141.833 233.179 125.023C245.251 111.602 255.24 96.9674 264.851 82.1322C266.924 78.9319 268.98 75.7229 271.035 72.5147C278.467 60.912 285.892 49.3201 294.133 38.1897Z" fill="#82A9FE" stroke="#F17020"/>
<path d="M186.565 204.225L186.564 204.225C183.855 202.546 181.308 200.662 178.969 198.611L178.968 198.61C169.441 190.29 163.118 179.127 161.886 166.526C159.111 138.142 183.273 113.064 216.02 110.632C234.108 109.288 250.975 115.146 262.913 125.456C263.467 125.937 264.009 126.414 264.534 126.905L264.534 126.905C273.293 135.089 279.075 145.774 280.247 157.761C283.022 186.145 258.86 211.231 226.115 213.662C211.478 214.749 197.635 211.119 186.565 204.225Z" fill="white" stroke="#F17020"/>
<path d="M203.696 192.65L203.696 192.65L185.238 179.088L184.942 179.491L185.238 179.088C179.687 175.009 179 167.828 183.657 163.013L183.657 163.013C188.352 158.157 196.716 157.529 202.304 161.635L202.304 161.635L210.287 167.5L210.639 167.758L210.942 167.445L237.59 139.892C242.287 135.036 250.649 134.407 256.239 138.513C261.79 142.591 262.477 149.773 257.821 154.587L222.343 191.27L222.343 191.27C219.74 193.964 216.003 195.365 212.222 195.365C209.2 195.365 206.172 194.47 203.696 192.65Z" fill="#34FA3B" stroke="#F17020"/>
<path d="M346.562 241.386L346.562 241.385C344.472 233.458 342.764 225.983 343.215 220.266C343.849 212.192 344.334 204.115 344.675 196.034C345.682 171.749 345.319 147.428 343.59 123.179C343.352 119.856 342.769 116.208 341.358 113.165C339.953 110.136 337.743 107.736 334.244 106.815L346.562 241.386ZM346.562 241.386C346.965 242.912 347.382 244.456 347.803 246.01C349.346 251.718 350.926 257.559 351.957 263.137C353.269 270.241 353.672 276.828 352.015 282.088L352.015 282.089M346.562 241.386L352.015 282.089M352.015 282.089C351.428 283.971 350.576 285.675 349.411 287.178C347.682 289.403 344.851 290.02 341.284 289.468C337.719 288.917 333.544 287.211 329.327 284.967C320.9 280.483 312.451 273.931 308.646 270.533C308.401 270.314 308.166 270.101 307.931 269.882L307.926 269.878M352.015 282.089L307.926 269.878M307.926 269.878C300.411 263.062 293.827 255.46 288.961 247.01C280.406 232.154 277.455 214.451 283.546 198.777L283.546 198.776M307.926 269.878L283.546 198.776M283.546 198.776C285.139 194.653 287.31 190.744 289.701 186.895L289.701 186.894M283.546 198.776L289.701 186.894M289.701 186.894C290.973 184.843 292.31 182.802 293.651 180.755C296.47 176.452 299.307 172.121 301.596 167.6C302.224 166.366 302.807 165.108 303.345 163.838L303.346 163.838M289.701 186.894L303.346 163.838M303.346 163.838C303.55 163.355 303.747 162.87 303.928 162.384C306.397 156.022 307.666 149.296 308.92 142.644C309.417 140.012 309.911 137.392 310.476 134.81C311.941 128.134 313.881 121.677 317.561 115.779L317.561 115.778M303.346 163.838L317.561 115.778M317.561 115.778C319.266 113.035 321.772 110.342 324.694 108.563M317.561 115.778L324.694 108.563M324.694 108.563C327.613 106.787 330.913 105.942 334.244 106.815L324.694 108.563Z" fill="#DA4139" stroke="#F17020"/>
<path d="M361.383 314.759H235.795C226.115 314.759 218.389 307.932 218.389 299.651V247.283C218.389 239.001 226.115 232.175 235.795 232.175H361.383C371.063 232.175 378.789 239.001 378.789 247.283V299.651C378.789 307.932 371.063 314.759 361.383 314.759Z" fill="#FEAC37" stroke="#F17020"/>
<path d="M218.389 272.968V251.879H378.789V272.968H218.389Z" fill="#3E4BE0" stroke="#F17020"/>
<path d="M231.248 287.914V281.984H258.82V287.914H231.248Z" fill="white" stroke="#F17020"/>
<path d="M275.225 287.914V281.984H367.317V287.914H275.225Z" fill="white" stroke="#F17020"/>
<path d="M399.731 70.8224L399.752 70.371L400.028 64.6232L395.533 64.4596L395.25 70.3519L395.23 70.7592L394.828 70.822C389.405 71.6667 384.615 75.3178 384.367 80.4829C384.204 83.8707 386.68 87.1133 391.381 89.3806L391.381 89.3806C392.281 89.8144 393.163 90.2106 394.008 90.5901C394.256 90.7016 394.501 90.8116 394.742 90.9207C395.799 91.3986 396.787 91.8602 397.628 92.3386C399.264 93.2692 400.569 94.3878 400.49 96.0408C400.445 96.9656 400.138 97.6945 399.645 98.2505C399.158 98.799 398.517 99.1483 397.851 99.3718C396.533 99.8143 394.998 99.7996 394.006 99.7636L394.006 99.7636C391.617 99.6765 389.085 98.5375 387.189 97.4597C386.232 96.9162 385.421 96.3784 384.848 95.9763C384.649 95.8368 384.479 95.7134 384.341 95.6116L379.98 101.398C380.115 101.503 380.287 101.632 380.496 101.78C381.082 102.196 381.958 102.761 383.103 103.35C385.394 104.527 388.76 105.795 393.049 106.148L393.53 106.187L393.507 106.67L393.238 112.284L397.733 112.447L398.018 106.511L398.038 106.086L398.461 106.038C401.505 105.691 404.223 104.783 406.212 103.158C408.185 101.547 409.479 99.1997 409.639 95.874L409.639 95.8739C409.741 93.7397 408.691 91.8291 407.016 90.1968C405.341 88.5647 403.084 87.2558 400.898 86.3463C400.773 86.2953 400.648 86.2446 400.524 86.1941C398.407 85.3319 396.441 84.5314 394.995 83.6995C394.229 83.2585 393.574 82.7898 393.113 82.2716C392.647 81.747 392.355 81.1419 392.388 80.452L392.388 80.4518C392.443 79.3154 392.973 78.391 393.951 77.7887C394.902 77.2027 396.237 76.9439 397.891 77.0043M399.731 70.8224L397.872 77.5039M399.731 70.8224L400.178 70.8894C403.056 71.3209 405.453 72.1928 407.13 72.9569C407.967 73.3387 408.624 73.6928 409.069 73.9502C409.165 74.0057 409.251 74.0566 409.327 74.1024M399.731 70.8224L400.252 70.3949M397.891 77.0043L397.872 77.5039M397.891 77.0043C397.891 77.0043 397.891 77.0043 397.891 77.0043L397.872 77.5039M397.891 77.0043C400.064 77.0835 402.161 77.7828 403.699 78.4497C404.472 78.7845 405.111 79.1146 405.558 79.3615C405.663 79.4196 405.758 79.4731 405.841 79.521M397.872 77.5039C402.022 77.6551 405.958 80.1725 405.999 80.1987L405.579 79.9284L405.841 79.521M405.841 79.521L409.327 74.1024M405.841 79.521C405.935 79.5751 406.015 79.6222 406.079 79.6607C406.139 79.697 406.186 79.7258 406.218 79.7458L406.256 79.7691L406.266 79.7755L406.269 79.7774L406.27 79.778L406.27 79.7782C406.27 79.7783 406.27 79.7783 406 80.1989L410.02 73.9489M410.138 95.8979C410.362 91.2419 405.535 87.7339 401.088 85.8839C400.968 85.8349 400.848 85.7861 400.729 85.7375C396.343 83.9517 392.79 82.5048 392.887 80.4759L410.138 95.8979ZM410.138 95.8979C409.806 102.816 404.718 105.828 398.517 106.535L410.138 95.8979ZM393.008 106.646L392.738 112.265L393.008 106.646ZM393.008 106.646C384.276 105.928 379.291 101.482 379.291 101.482L393.008 106.646ZM400.252 70.3949C404.987 71.1049 408.44 72.9827 409.597 73.6817L409.327 74.1024M400.252 70.3949L400.527 64.6414L400.252 70.3949ZM409.327 74.1024C409.427 74.1627 409.509 74.214 409.573 74.2546C409.629 74.2903 409.672 74.3178 409.699 74.3359L409.729 74.356L409.736 74.3605L409.737 74.3614C409.737 74.3613 409.737 74.3612 410.02 73.9489M410.02 73.9489C410.02 73.9489 409.927 73.8849 409.747 73.7735L410.02 73.9489Z" fill="white" stroke="#F17020"/>
<path d="M429.682 68.5847L430.065 68.2629L429.682 68.5847C443.091 84.5267 439.145 107.011 420.805 118.732C413.465 123.422 404.914 125.685 396.431 125.685C383.689 125.685 371.138 120.584 363.072 110.995C349.663 95.0531 353.607 72.5685 371.949 60.8482C390.325 49.1057 416.237 52.5989 429.682 68.5847ZM366.245 109.122L366.245 109.122C378.443 123.622 401.854 126.748 418.455 116.14L418.186 115.719L418.455 116.14C435.092 105.508 438.742 85.0051 426.508 70.4591L426.507 70.459C419.181 61.7505 407.816 57.1519 396.329 57.1519C388.672 57.1519 380.944 59.194 374.298 63.4406L374.567 63.8619L374.298 63.4406C357.661 74.0713 354.011 94.5757 366.245 109.122Z" fill="white" stroke="#F17020"/>
<path d="M443.536 12.1679L443.508 12.6648C445.46 12.8849 447.102 13.4133 448.256 13.8868C448.832 14.1234 449.285 14.3456 449.592 14.5073C449.604 14.5139 449.616 14.5204 449.628 14.5268L447.598 18.0167C447.578 18.0062 447.557 17.9955 447.535 17.9846C447.22 17.8262 446.77 17.6158 446.229 17.4054C445.154 16.9873 443.686 16.5569 442.18 16.5569C441.039 16.5569 440.103 16.7681 439.439 17.2154C438.747 17.6807 438.392 18.3739 438.392 19.1989C438.392 19.722 438.635 20.1626 438.987 20.5259C439.334 20.8835 439.81 21.1946 440.351 21.4783C441.369 22.012 442.738 22.5099 444.198 23.0407C444.287 23.0731 444.376 23.1055 444.466 23.1382C445.968 23.6972 447.524 24.5217 448.696 25.572C449.869 26.6229 450.611 27.8561 450.611 29.2469C450.611 31.4668 449.826 33.0472 448.577 34.1569C447.311 35.281 445.528 35.957 443.49 36.2655L443.064 36.3299V36.7599V40.6349H440.325V36.9709V36.4932L439.848 36.4714C436.948 36.3394 434.641 35.5681 433.061 34.8321C432.272 34.4641 431.665 34.1053 431.258 33.8407C431.172 33.7848 431.095 33.7331 431.027 33.6865L433.62 29.9128C433.688 29.9583 433.764 30.0082 433.847 30.0616C434.253 30.3226 434.826 30.6705 435.498 31.0189C436.827 31.7068 438.611 32.4329 440.276 32.4329C440.951 32.4329 442.021 32.4059 442.933 32.0609C443.396 31.8859 443.847 31.6185 444.184 31.2042C444.527 30.782 444.723 30.2418 444.723 29.5789C444.723 28.3535 443.715 27.5877 442.575 26.9965C441.981 26.6887 441.289 26.3973 440.556 26.0988C440.387 26.0301 440.216 25.9609 440.042 25.8909C439.457 25.6544 438.848 25.4086 438.226 25.1376L438.226 25.1375C434.983 23.7245 433.265 21.6245 433.265 19.4109C433.265 16.0073 436.307 13.4509 439.922 12.7508L440.327 12.6724V12.2599V8.41492H443.066V12.1679H443.536Z" fill="white" stroke="#F17020"/>
<path d="M470.563 28.2549C471.427 21.5029 469.222 14.8619 464.355 9.55593C459.488 4.24893 452.541 0.911923 444.795 0.159923L470.563 28.2549ZM470.563 28.2549C469.7 35.0069 465.872 41.0609 459.783 45.3029L470.563 28.2549ZM419.141 40.981L419.141 40.981C414.367 35.7763 412.216 29.2799 413.06 22.6834L413.06 22.6833C413.903 16.086 417.646 10.1516 423.629 5.98215C429.614 1.81156 437.111 -0.0845315 444.747 0.657579L444.747 0.657584C452.381 1.39871 459.21 4.68546 463.986 9.89387L463.986 9.8939C468.76 15.0986 470.911 21.5949 470.067 28.1915L470.067 28.1916C469.224 34.7899 465.482 40.7233 459.497 44.8927L459.497 44.8928C454.364 48.4714 448.114 50.3749 441.62 50.3749C440.546 50.3749 439.465 50.3227 438.381 50.2173C430.746 49.4751 423.917 46.1894 419.141 40.981ZM426.107 8.48871L426.107 8.48873C420.935 12.0933 417.662 17.2549 416.923 23.0295L416.923 23.0296C416.185 28.8069 418.075 34.4796 422.22 38.9989C426.362 43.5155 432.264 46.3437 438.824 46.9816L438.824 46.9816C445.378 47.6174 451.847 45.9927 457.019 42.3881L457.019 42.3881C462.191 38.7835 465.465 33.622 466.204 27.8474L466.204 27.8473C466.942 22.0709 465.052 16.3973 460.906 11.879C456.764 7.36243 450.863 4.53422 444.302 3.89629C443.371 3.80469 442.441 3.75992 441.516 3.75992C435.931 3.75992 430.544 5.39638 426.107 8.48871Z" fill="white" stroke="#F17020"/>
<path d="M71.3847 337.642L71.3848 338.089L71.8287 338.139C74.8643 338.481 77.4176 339.303 79.2116 340.039C80.108 340.407 80.8132 340.753 81.2923 341.005C81.4067 341.066 81.5082 341.121 81.5963 341.169L78.2015 347.006C78.1075 346.957 77.9995 346.901 77.8786 346.84C77.3992 346.599 76.715 346.279 75.8913 345.958C74.2508 345.32 72.0261 344.67 69.7531 344.67C68.0236 344.67 66.6444 344.991 65.6827 345.638C64.6943 346.303 64.189 347.285 64.189 348.469C64.189 349.184 64.5205 349.798 65.0303 350.325C65.5346 350.846 66.2396 351.309 67.0622 351.74C68.6129 352.554 70.7055 353.315 72.9621 354.135C73.0959 354.184 73.2303 354.233 73.3652 354.282C75.6992 355.151 78.1298 356.436 79.9677 358.083C81.8062 359.73 83.0067 361.696 83.0067 363.942C83.0067 367.433 81.7684 369.942 79.7829 371.705C77.7812 373.483 74.9797 374.538 71.8099 375.018L71.3847 375.082V375.512V381.749H66.6277V375.837V375.359L66.1505 375.337C61.643 375.132 58.0552 373.933 55.5969 372.787C54.3678 372.215 53.422 371.656 52.7861 371.242C52.548 371.087 52.3535 370.953 52.2039 370.846L56.4981 364.593C56.6506 364.697 56.8416 364.824 57.0659 364.969C57.6847 365.367 58.5598 365.898 59.5864 366.43C61.6227 367.484 64.3233 368.577 66.8195 368.577C67.8586 368.577 69.461 368.534 70.8145 368.022C71.498 367.763 72.1477 367.375 72.6274 366.785C73.1134 366.187 73.3966 365.417 73.3966 364.453C73.3966 362.739 71.9917 361.626 70.2346 360.716C69.3325 360.248 68.2771 359.803 67.1478 359.344C66.8897 359.239 66.6276 359.133 66.3621 359.025C65.4592 358.661 64.5166 358.28 63.5545 357.861L63.5544 357.861C58.5167 355.666 55.7515 352.359 55.7515 348.793C55.7515 343.368 60.588 339.363 66.2216 338.272L66.6265 338.193V337.781V331.59H71.3837L71.3847 337.642Z" fill="white" stroke="#F17020"/>
<path d="M35.1066 381.479L35.1065 381.479C20.3048 365.342 23.3042 341.721 41.8559 328.793C60.4445 315.841 87.6646 318.497 102.505 334.677L102.874 334.339L102.505 334.677C109.687 342.507 112.929 352.288 111.658 362.224C110.388 372.164 104.752 381.093 95.756 387.361L96.0418 387.771L95.756 387.361C88.0356 392.74 78.6437 395.6 68.8891 395.6C67.275 395.6 65.6517 395.522 64.0226 395.363C52.5561 394.25 42.2899 389.313 35.1066 381.479ZM44.3349 331.299L44.3348 331.299C27.4206 343.086 24.6332 364.72 38.1854 379.496L38.5539 379.158L38.1854 379.496C44.7361 386.637 54.0734 391.117 64.4673 392.127C74.8624 393.134 85.0931 390.558 93.2759 384.855C101.46 379.152 106.628 370.995 107.794 361.879C108.959 352.762 105.979 343.803 99.4253 336.659C91.6796 328.214 80.2611 323.833 68.7664 323.833C60.1907 323.833 51.552 326.27 44.3349 331.299Z" fill="white" stroke="#F17020"/>
<path d="M83.508 306.197C82.3682 306.197 81.5654 305.405 81.5654 304.568V289.898C81.5654 289.06 82.3682 288.269 83.508 288.269C84.6478 288.269 85.4506 289.06 85.4506 289.898V304.568C85.4506 305.405 84.6478 306.197 83.508 306.197Z" fill="white" stroke="#F17020"/>
<path d="M91.9214 298.862H75.092C73.9522 298.862 73.1494 298.07 73.1494 297.233C73.1494 296.395 73.9522 295.604 75.092 295.604H91.9214C93.0612 295.604 93.864 296.395 93.864 297.233C93.864 298.07 93.0612 298.862 91.9214 298.862Z" fill="white" stroke="#F17020"/>
<path d="M32.173 309.006C31.0332 309.006 30.2305 308.214 30.2305 307.377V271.867C30.2305 271.029 31.0333 270.238 32.173 270.238C33.3128 270.238 34.1156 271.029 34.1156 271.867V307.377C34.1156 308.214 33.3128 309.006 32.173 309.006Z" fill="white" stroke="#F17020"/>
<path d="M52.5438 291.251H11.8039C10.6641 291.251 9.86133 290.459 9.86133 289.622C9.86133 288.784 10.6641 287.993 11.8039 287.993H52.5438C53.6836 287.993 54.4864 288.784 54.4864 289.622C54.4864 290.459 53.6836 291.251 52.5438 291.251Z" fill="white" stroke="#F17020"/>
<path d="M81.3348 261.103C81.3348 262.816 79.7172 264.318 77.5727 264.318C75.4282 264.318 73.8105 262.816 73.8105 261.103C73.8105 259.39 75.4282 257.888 77.5727 257.888C79.7172 257.888 81.3348 259.39 81.3348 261.103Z" fill="white" stroke="#F17020"/>
<path d="M4.26215 329.961L4.26236 329.961C6.40573 329.96 8.0243 331.462 8.0243 333.176C8.0243 334.889 6.40695 336.391 4.26215 336.391C2.11734 336.391 0.5 334.889 0.5 333.176C0.5 331.462 2.11734 329.961 4.26215 329.961Z" fill="white" stroke="#F17020"/>
<path d="M151.236 365.125C151.236 366.838 149.619 368.34 147.474 368.34C145.33 368.34 143.712 366.838 143.712 365.125C143.712 363.412 145.33 361.91 147.474 361.91C149.619 361.91 151.236 363.412 151.236 365.125Z" fill="white" stroke="#F17020"/>
<path d="M398.447 33.7379C398.447 35.4512 396.829 36.9529 394.685 36.9529C392.54 36.9529 390.923 35.4512 390.923 33.7379C390.923 32.0246 392.54 30.5229 394.685 30.5229C396.829 30.5229 398.447 32.0246 398.447 33.7379Z" fill="white" stroke="#F17020"/>
<path d="M390.776 145.191C390.776 146.904 389.159 148.406 387.014 148.406C384.869 148.406 383.252 146.904 383.252 145.191C383.252 143.477 384.869 141.976 387.014 141.976C389.159 141.976 390.776 143.478 390.776 145.191Z" fill="white" stroke="#F17020"/>
<path d="M370.194 30.7129C370.194 31.9865 368.985 33.1319 367.345 33.1319C365.705 33.1319 364.496 31.9865 364.496 30.7129C364.496 29.4394 365.705 28.2939 367.345 28.2939C368.985 28.2939 370.194 29.4394 370.194 30.7129Z" fill="white" stroke="#F17020"/>
<path d="M59.9019 265.508C59.9019 266.782 58.6931 267.927 57.053 267.927C55.4129 267.927 54.2041 266.782 54.2041 265.508C54.2041 264.234 55.4129 263.089 57.053 263.089C58.6931 263.089 59.9019 264.234 59.9019 265.508Z" fill="white" stroke="#F17020"/>
<path d="M134.127 387.416C134.127 388.69 132.918 389.835 131.278 389.835C129.637 389.835 128.429 388.69 128.429 387.416C128.429 386.142 129.637 384.997 131.278 384.997C132.918 384.997 134.127 386.142 134.127 387.416Z" fill="white" stroke="#F17020"/>
<path d="M483.631 52.3139C483.631 53.5876 482.423 54.7329 480.783 54.7329C479.142 54.7329 477.934 53.5876 477.934 52.3139C477.934 51.0403 479.142 49.8949 480.783 49.8949C482.423 49.8949 483.631 51.0403 483.631 52.3139Z" fill="white" stroke="#F17020"/>
</svg>
