<svg width="20" height="20" viewBox="0 0 20 20" fill="none" xmlns="http://www.w3.org/2000/svg">
<path d="M10 15V15.01M1 10C1 11.1819 1.23279 12.3522 1.68508 13.4442C2.13738 14.5361 2.80031 15.5282 3.63604 16.364C4.47177 17.1997 5.46392 17.8626 6.55585 18.3149C7.64778 18.7672 8.8181 19 10 19C11.1819 19 12.3522 18.7672 13.4442 18.3149C14.5361 17.8626 15.5282 17.1997 16.364 16.364C17.1997 15.5282 17.8626 14.5361 18.3149 13.4442C18.7672 12.3522 19 11.1819 19 10C19 8.8181 18.7672 7.64778 18.3149 6.55585C17.8626 5.46392 17.1997 4.47177 16.364 3.63604C15.5282 2.80031 14.5361 2.13738 13.4442 1.68508C12.3522 1.23279 11.1819 1 10 1C8.8181 1 7.64778 1.23279 6.55585 1.68508C5.46392 2.13738 4.47177 2.80031 3.63604 3.63604C2.80031 4.47177 2.13738 5.46392 1.68508 6.55585C1.23279 7.64778 1 8.8181 1 10Z" stroke="#F7F7F7" stroke-width="2" stroke-linecap="round" stroke-linejoin="round"/>
<path d="M10 11.5C9.98159 11.1754 10.0692 10.8535 10.2495 10.583C10.4299 10.3125 10.6933 10.1079 11 10C11.3759 9.85626 11.7132 9.62723 11.9856 9.33095C12.2579 9.03467 12.4577 8.67922 12.5693 8.29259C12.6809 7.90595 12.7013 7.49869 12.6287 7.10286C12.5562 6.70704 12.3928 6.33345 12.1513 6.01151C11.9099 5.68958 11.597 5.42808 11.2373 5.24762C10.8776 5.06715 10.4809 4.97264 10.0785 4.97152C9.67611 4.97041 9.27892 5.06272 8.91824 5.24118C8.55756 5.41965 8.24323 5.67941 8 6" stroke="#F7F7F7" stroke-width="2" stroke-linecap="round" stroke-linejoin="round"/>
</svg>
